<svg id="Camada_1" data-name="Camada 1" xmlns="http://www.w3.org/2000/svg" viewBox="0 0 697.16 163.09"><defs><style>.cls-1,.cls-2{fill:#fff;}.cls-2{fill-rule:evenodd;}</style></defs><path class="cls-1" d="M676.33,304l1.18,3L596,434H571.35l-36-126.95,2.44-3h39.16l15.43,72.56L635.71,304Z" transform="translate(-398.16 -278.36)"/><path class="cls-1" d="M690,441.44q-15.81,0-23.19-8.1t-4.35-24.71L674.91,339h39.16l-11.24,62.6q-1.17,5.56,2.45,5.56a5.69,5.69,0,0,0,3.22-1l2.34,1.85-1,25.59-2.35,2.73A34.3,34.3,0,0,1,690,441.44ZM698.25,324A20.26,20.26,0,0,1,678,303.84a24.1,24.1,0,0,1,7.72-18.06,25.54,25.54,0,0,1,18.35-7.42,19.18,19.18,0,0,1,14.31,6.1,19.91,19.91,0,0,1,5.91,14.31,23.65,23.65,0,0,1-7.72,17.92A25.82,25.82,0,0,1,698.25,324Z" transform="translate(-398.16 -278.36)"/><path class="cls-1" d="M780.21,331.56q25,0,37.21,15.23t7.62,37.8a59.65,59.65,0,0,1-2,7.61H755.8q-.19,8.21,4.79,12.41t13.67,4.19a35.37,35.37,0,0,0,23.53-9h2.83L814,416l-.58,2.74q-18.36,17.57-45,17.67-22,0-35.89-13T718.59,389a54.17,54.17,0,0,1,8.6-30.08,57.3,57.3,0,0,1,23.24-20.51A65.36,65.36,0,0,1,780.21,331.56Zm-20.8,39.84h30.38a17.36,17.36,0,0,0-2.93-8.79q-3.61-4.78-10.26-4.78a17.22,17.22,0,0,0-10.15,2.93A20.72,20.72,0,0,0,759.41,371.4Z" transform="translate(-398.16 -278.36)"/><path class="cls-1" d="M874.29,436.44q-23,0-35.15-12.21-11.24-11.42-8-31.83L841.58,334h39.16l-10,55a29.65,29.65,0,0,0-.49,4.79,9.72,9.72,0,0,0,2.54,7q2.53,2.63,7.32,2.63a12,12,0,0,0,8.21-3,14,14,0,0,0,4.39-8L903.3,334h35.25L928.3,390.45q-1,5.76,2.05,9.37t8.79,3.61q8.4,0,13.82-9.81t5.42-29.25q0-21.39-3-27.54L957.5,334h37.2A137.41,137.41,0,0,1,997,361q0,36-15.28,55.76t-44.49,19.73q-20.79,0-30.66-11.62A49.14,49.14,0,0,1,874.29,436.44Z" transform="translate(-398.16 -278.36)"/><path class="cls-1" d="M1037.12,436.83a74.37,74.37,0,0,1-28.81-5.32q-12.78-5.33-17.57-13.33l.39-2.73,19.53-19.24h2.83q3.62,4.4,11.62,8.2a35.52,35.52,0,0,0,15.24,3.81q7.8,0,7.71-4.4,0-3.4-8.4-6.05-7.62-2.44-12.4-4.39a67.27,67.27,0,0,1-10.45-5.57,24,24,0,0,1-8.5-8.89,26.13,26.13,0,0,1-2.83-12.5q0-15.42,13.09-25.34t34.18-9.91a71.16,71.16,0,0,1,25.63,4.39q11.47,4.4,16.95,11.82l-.39,2.83-19.24,18h-2.83q-9.58-9.57-22.17-9.57-8,0-8,3.81c0,1.17.73,2.16,2.2,3a58.67,58.67,0,0,0,8.49,3.32q6.3,2.1,9.72,3.46,22,9.18,22,28.62,0,16.4-13.28,26.22T1037.12,436.83Z" transform="translate(-398.16 -278.36)"/><path class="cls-2" d="M443.54,428.76c2.53,0,5.7,0,13.17-.08l.19-19.93c9.85-.7,8.89-.4,9.65,2.4.79,5,4.12,10.08,7.91,13.35,10.53,9.06,26.14,5.89,36.55-.66l-4-9.67c-8.66,6-18.38,8.74-25-1.24l-2.84-5.6c9.23-1.18,19.25-4.86,24.64-9.84,17.89-16.52-1.37-38.33-22.56-27.73C474.84,373,468.14,380,467,389.29l12.05,1.62c6.83-28.81,36.91-3.81,4.75,4.07-8.14,2-17.57,2.81-25.69,1-1.58-3.37-.93-18.43-.94-23,0-7.42.36-15.8-.14-23.09l-13.35-.25L443.49,391c-8.9-4.12-14.71-10.59-19.45-17.05-6.08-8.29-8.2-13.41-12.36-24.11l-13.33-.18-.19,78.8,13.29-.09.18-49c4.1,3.57,4.38,7.47,13.8,15.63,10.22,8.86,12.68,7.38,17.9,11.19Z" transform="translate(-398.16 -278.36)"/><path class="cls-2" d="M517.83,405.92c.17,9.73-.15,18.71,7.63,22.36,7,3.27,18.39,2.12,23.64-2.44l-2.77-8.77c-14,4.79-15.4.43-15-14.74l.11-22.21h15V369h-1l-14.09,0-.12-19-13.09-.13Z" transform="translate(-398.16 -278.36)"/></svg>